<svg width="964" height="5405" version="1.1" baseProfile="full" xmlns="http://www.w3.org/2000/svg" xmlns:xlink="http://www.w3.org/1999/xlink" xmlns:ev="http://www.w3.org/2001/xml-events" style="font-weight:bold; font-size:12pt; font-family:'Calibri', Helvetica, sans-serif;;stroke-width:3;stroke-linejoin:round;stroke-linecap:round"><rect x="25.5" y="25.5" height="962.5" width="914" style="stroke:#33322E;fill:#eee8d5;"></rect>
<text x="469.8" y="59" style="">App</text>
<path d="M25.5 80.5 L939.5 80.5" style="stroke:#33322E;fill:none;"></path>
<path d="M115.1 589.3 L175.5 703 L461.5 703 L461.5 703 L533.1 666.8 L533.1 666.8 " style="stroke:#33322E;fill:none;"></path>
<path d="M521.3 680.2 L525.7 670.5 L515.3 668.3 L533.1 666.8 Z" style="stroke:#33322E;fill:#33322E;"></path>
<path d="M688.5 639.3 L713.5 639.3 L799.8 550.5 L799.8 550.5 " style="stroke:#33322E;fill:none;"></path>
<path d="M792.9 567.1 L794 556.5 L783.4 557.8 L799.8 550.5 Z" style="stroke:#33322E;fill:#33322E;"></path>
<path d="M105.3 534.3 L175.5 133 L264.5 133 L264.5 133 " style="stroke:#33322E;fill:none;"></path>
<path d="M247.8 139.7 L256.2 133 L247.8 126.3 L264.5 133 Z" style="stroke:#33322E;fill:#33322E;"></path>
<path d="M372.5 133 L461.5 133 L713.5 133 L713.5 133 L818.5 495.5 L818.5 495.5 " style="stroke:#33322E;fill:none;"></path>
<path d="M807.5 481.3 L816.2 487.5 L820.3 477.6 L818.5 495.5 Z" style="stroke:#33322E;fill:#33322E;"></path>
<path d="M109.9 534.3 L175.5 343 L256 343 L256 343 " style="stroke:#33322E;fill:none;"></path>
<path d="M239.3 349.7 L247.7 343 L239.3 336.3 L256 343 Z" style="stroke:#33322E;fill:#33322E;"></path>
<path d="M106.9 534.3 L175.5 238 L234.5 238 L234.5 238 " style="stroke:#33322E;fill:none;"></path>
<path d="M217.8 244.7 L226.2 238 L217.8 231.3 L234.5 238 Z" style="stroke:#33322E;fill:#33322E;"></path>
<path d="M402.5 238 L461.5 238 L570.8 418 L570.8 418 " style="stroke:#33322E;fill:none;"></path>
<path d="M556.5 407.2 L566.5 410.9 L567.8 400.3 L570.8 418 Z" style="stroke:#33322E;fill:#33322E;"></path>
<path d="M115.1 534.3 L175.5 420.5 L461.5 420.5 L461.5 420.5 L525 433.1 L525 433.1 " style="stroke:#33322E;fill:none;"></path>
<path d="M507.4 436.4 L516.8 431.5 L509.9 423.3 L525 433.1 Z" style="stroke:#33322E;fill:#33322E;"></path>
<path d="M650 445.5 L713.5 445.5 L786.4 495.5 L786.4 495.5 " style="stroke:#33322E;fill:none;"></path>
<path d="M768.9 491.6 L779.5 490.8 L776.4 480.6 L786.4 495.5 Z" style="stroke:#33322E;fill:#33322E;"></path>
<path d="M139.8 534.3 L175.5 509.3 L239 509.3 L239 509.3 " style="stroke:#33322E;fill:none;"></path>
<path d="M222.3 515.9 L230.7 509.3 L222.3 502.6 L239 509.3 Z" style="stroke:#33322E;fill:#33322E;"></path>
<path d="M398 495.4 L461.5 484.3 L525 464.7 L525 464.7 " style="stroke:#33322E;fill:none;"></path>
<path d="M511 476 L517 467.2 L507.1 463.2 L525 464.7 Z" style="stroke:#33322E;fill:#33322E;"></path>
<path d="M398 523.1 L461.5 534.3 L554.5 611.8 L554.5 611.8 " style="stroke:#33322E;fill:none;"></path>
<path d="M537.4 606.2 L548.1 606.4 L546 596 L554.5 611.8 Z" style="stroke:#33322E;fill:#33322E;"></path>
<path d="M139.8 589.3 L175.5 614.3 L239 614.3 L239 614.3 " style="stroke:#33322E;fill:none;"></path>
<path d="M222.3 620.9 L230.7 614.3 L222.3 607.6 L239 614.3 Z" style="stroke:#33322E;fill:#33322E;"></path>
<path d="M398 600.4 L461.5 589.3 L563.4 473 L563.4 473 " style="stroke:#33322E;fill:none;"></path>
<path d="M557.4 489.9 L557.9 479.3 L547.4 481.1 L563.4 473 Z" style="stroke:#33322E;fill:#33322E;"></path>
<path d="M398 628.1 L461.5 639.3 L486.5 639.3 L486.5 639.3 " style="stroke:#33322E;fill:none;"></path>
<path d="M469.8 645.9 L478.2 639.3 L469.8 632.6 L486.5 639.3 Z" style="stroke:#33322E;fill:#33322E;"></path>
<path d="M107.5 589.3 L175.5 858 L713.5 858 L713.5 858 L817.2 550.5 L817.2 550.5 " style="stroke:#33322E;fill:none;"></path>
<path d="M818.2 568.4 L814.6 558.4 L805.6 564.2 L817.2 550.5 Z" style="stroke:#33322E;fill:#33322E;"></path>
<path d="M109.9 589.3 L175.5 780.5 L205 780.5 L205 780.5 " style="stroke:#33322E;fill:none;"></path>
<path d="M188.3 787.2 L196.7 780.5 L188.3 773.8 L205 780.5 Z" style="stroke:#33322E;fill:#33322E;"></path>
<path d="M106 589.3 L175.5 935.5 L200.5 935.5 L200.5 935.5 " style="stroke:#33322E;fill:none;"></path>
<path d="M183.8 942.2 L192.2 935.5 L183.8 928.8 L200.5 935.5 Z" style="stroke:#33322E;fill:#33322E;"></path>
<circle r="10" cx="100.5" cy="529.5" style="stroke:#33322E;fill:#fdf6e3;"></circle>
<path d="M100.5 539.5 L100.5 559.5" style="stroke:#33322E;fill:none;"></path>
<path d="M90.5 549.5 L110.5 549.5" style="stroke:#33322E;fill:none;"></path>
<path d="M90.5 569.5 L100.5 559.5 L110.5 569.5" style="stroke:#33322E;fill:none;"></path>
<text x="70.8" y="583" style="">AppUser</text>
<ellipse cx="587.5" cy="639.3" rx="101" ry="27.5" style="stroke:#33322E;fill:#fdf6e3;"></ellipse>
<text x="506.8" y="645" style="">OpenGitHubUserEvent</text>
<ellipse cx="826.5" cy="523" rx="88" ry="27.5" style="stroke:#33322E;fill:#fdf6e3;"></ellipse>
<text x="758.5" y="529" style="">OpenItemInNewTab</text>
<ellipse cx="318.5" cy="133" rx="54" ry="27.5" style="stroke:#33322E;fill:#fdf6e3;"></ellipse>
<text x="284.5" y="139" style="">OpenItem</text>
<ellipse cx="318.5" cy="343" rx="62.5" ry="27.5" style="stroke:#33322E;fill:#fdf6e3;"></ellipse>
<text x="276.5" y="349" style="">OpenStream</text>
<ellipse cx="318.5" cy="238" rx="84" ry="27.5" style="stroke:#33322E;fill:#fdf6e3;"></ellipse>
<text x="254.8" y="244" style="">SelectFirstItem</text>
<ellipse cx="587.5" cy="445.5" rx="62.5" ry="27.5" style="stroke:#33322E;fill:#fdf6e3;"></ellipse>
<text x="545.5" y="452" style="">SelectItem</text>
<ellipse cx="318.5" cy="509.3" rx="79.5" ry="27.5" style="stroke:#33322E;fill:#fdf6e3;"></ellipse>
<text x="259.5" y="515" style="">SelectNextItem</text>
<ellipse cx="318.5" cy="614.3" rx="79.5" ry="27.5" style="stroke:#33322E;fill:#fdf6e3;"></ellipse>
<text x="259.5" y="620" style="">SelectPrevItem</text>
<ellipse cx="318.5" cy="780.5" rx="113.5" ry="27.5" style="stroke:#33322E;fill:#fdf6e3;"></ellipse>
<text x="225.5" y="787" style="">UpdateAppNetworkStatus</text>
<ellipse cx="318.5" cy="935.5" rx="118" ry="27.5" style="stroke:#33322E;fill:#fdf6e3;"></ellipse>
<text x="220.8" y="942" style="">UpdateQueryToSearchList</text>
<rect x="92.5" y="1038.5" height="1092.5" width="781" style="stroke:#33322E;fill:#eee8d5;"></rect>
<text x="415" y="1072" style="">GitHubSearchList</text>
<path d="M92.5 1093.5 L873.5 1093.5" style="stroke:#33322E;fill:none;"></path>
<path d="M171.3 1663.5 L242.5 1146 L331 1146 L331 1146 " style="stroke:#33322E;fill:none;"></path>
<path d="M314.3 1152.7 L322.7 1146 L314.3 1139.3 L331 1146 Z" style="stroke:#33322E;fill:#33322E;"></path>
<path d="M172.2 1663.5 L242.5 1251 L339.5 1251 L339.5 1251 " style="stroke:#33322E;fill:none;"></path>
<path d="M322.8 1257.7 L331.2 1251 L322.8 1244.3 L339.5 1251 Z" style="stroke:#33322E;fill:#33322E;"></path>
<path d="M173.7 1663.5 L242.5 1356 L297 1356 L297 1356 " style="stroke:#33322E;fill:none;"></path>
<path d="M280.3 1362.7 L288.7 1356 L280.3 1349.3 L297 1356 Z" style="stroke:#33322E;fill:#33322E;"></path>
<path d="M176.5 1663.5 L242.5 1461 L276 1461 L276 1461 " style="stroke:#33322E;fill:none;"></path>
<path d="M259.3 1467.7 L267.7 1461 L259.3 1454.3 L276 1461 Z" style="stroke:#33322E;fill:#33322E;"></path>
<path d="M464.7 1433.5 L570.5 1383.5 L659.5 1411.4 L659.5 1411.4 " style="stroke:#33322E;fill:none;"></path>
<path d="M641.6 1412.8 L651.5 1408.9 L645.6 1400.1 L659.5 1411.4 Z" style="stroke:#33322E;fill:#33322E;"></path>
<path d="M464.7 1488.5 L570.5 1538.5 L694.2 1661 L694.2 1661 " style="stroke:#33322E;fill:none;"></path>
<path d="M677.7 1654 L688.3 1655.1 L687.1 1644.5 L694.2 1661 Z" style="stroke:#33322E;fill:#33322E;"></path>
<path d="M537 1461 L570.5 1461 L666.5 1508.5 L666.5 1508.5 " style="stroke:#33322E;fill:none;"></path>
<path d="M648.6 1507.1 L659 1504.8 L654.5 1495.1 L666.5 1508.5 Z" style="stroke:#33322E;fill:#33322E;"></path>
<path d="M183.7 1718.5 L242.5 1818.5 L267.5 1818.5 L267.5 1818.5 " style="stroke:#33322E;fill:none;"></path>
<path d="M250.8 1825.2 L259.2 1818.5 L250.8 1811.8 L267.5 1818.5 Z" style="stroke:#33322E;fill:#33322E;"></path>
<path d="M545.5 1818.5 L570.5 1818.5 L690 1716 L690 1716 " style="stroke:#33322E;fill:none;"></path>
<path d="M681.6 1731.9 L683.6 1721.4 L673 1721.8 L690 1716 Z" style="stroke:#33322E;fill:#33322E;"></path>
<path d="M217.5 1691 L242.5 1691 L284.5 1691 L284.5 1691 " style="stroke:#33322E;fill:none;"></path>
<path d="M267.8 1697.7 L276.2 1691 L267.8 1684.3 L284.5 1691 Z" style="stroke:#33322E;fill:#33322E;"></path>
<path d="M450.5 1663.5 L570.5 1588.5 L695.5 1458.5 L695.5 1458.5 " style="stroke:#33322E;fill:none;"></path>
<path d="M688.8 1475.1 L689.8 1464.5 L679.2 1465.9 L695.5 1458.5 Z" style="stroke:#33322E;fill:#33322E;"></path>
<path d="M528.5 1709.6 L570.5 1716 L595.5 1711.5 L595.5 1711.5 " style="stroke:#33322E;fill:none;"></path>
<path d="M580.3 1721 L587.3 1713 L577.9 1707.9 L595.5 1711.5 Z" style="stroke:#33322E;fill:#33322E;"></path>
<path d="M528.5 1672.4 L570.5 1666 L690 1563.5 L690 1563.5 " style="stroke:#33322E;fill:none;"></path>
<path d="M681.6 1579.4 L683.6 1568.9 L673 1569.3 L690 1563.5 Z" style="stroke:#33322E;fill:#33322E;"></path>
<path d="M464.7 1718.5 L570.5 1768.5 L642.6 1793.5 L642.6 1793.5 " style="stroke:#33322E;fill:none;"></path>
<path d="M624.7 1794.3 L634.8 1790.8 L629.1 1781.7 L642.6 1793.5 Z" style="stroke:#33322E;fill:#33322E;"></path>
<path d="M177.6 1718.5 L242.5 1896 L570.5 1896 L570.5 1896 L701.9 1716 L701.9 1716 " style="stroke:#33322E;fill:none;"></path>
<path d="M697.5 1733.4 L697 1722.7 L686.7 1725.5 L701.9 1716 Z" style="stroke:#33322E;fill:#33322E;"></path>
<path d="M174.8 1718.5 L242.5 1973.5 L318.5 1973.5 L318.5 1973.5 " style="stroke:#33322E;fill:none;"></path>
<path d="M301.8 1980.2 L310.2 1973.5 L301.8 1966.8 L318.5 1973.5 Z" style="stroke:#33322E;fill:#33322E;"></path>
<path d="M172.8 1718.5 L242.5 2078.5 L297 2078.5 L297 2078.5 " style="stroke:#33322E;fill:none;"></path>
<path d="M280.3 2085.2 L288.7 2078.5 L280.3 2071.8 L297 2078.5 Z" style="stroke:#33322E;fill:#33322E;"></path>
<circle r="10" cx="167.5" cy="1658.5" style="stroke:#33322E;fill:#fdf6e3;"></circle>
<path d="M167.5 1668.5 L167.5 1688.5" style="stroke:#33322E;fill:none;"></path>
<path d="M157.5 1678.5 L177.5 1678.5" style="stroke:#33322E;fill:none;"></path>
<path d="M157.5 1698.5 L167.5 1688.5 L177.5 1698.5" style="stroke:#33322E;fill:none;"></path>
<text x="137.8" y="1712" style="">AppUser</text>
<ellipse cx="406.5" cy="1146" rx="75.5" ry="27.5" style="stroke:#33322E;fill:#fdf6e3;"></ellipse>
<text x="351.8" y="1152" style="">AddSearchList</text>
<ellipse cx="406.5" cy="1251" rx="67" ry="27.5" style="stroke:#33322E;fill:#fdf6e3;"></ellipse>
<text x="359.8" y="1257" style="">DeleteQuery</text>
<ellipse cx="406.5" cy="1356" rx="109.5" ry="27.5" style="stroke:#33322E;fill:#fdf6e3;"></ellipse>
<text x="317.8" y="1362" style="">SaveQueryToSearchList</text>
<ellipse cx="406.5" cy="1461" rx="130.5" ry="27.5" style="stroke:#33322E;fill:#fdf6e3;"></ellipse>
<text x="296.5" y="1467" style="">SearchQueriesAndOpenStream</text>
<ellipse cx="722" cy="1431" rx="62.5" ry="27.5" style="stroke:#33322E;fill:#fdf6e3;"></ellipse>
<text x="679.5" y="1437" style="">OpenStream</text>
<ellipse cx="722" cy="1688.5" rx="126.5" ry="27.5" style="stroke:#33322E;fill:#fdf6e3;"></ellipse>
<text x="615.8" y="1695" style="">SearchQueryToUpdateStream</text>
<ellipse cx="722" cy="1536" rx="84" ry="27.5" style="stroke:#33322E;fill:#fdf6e3;"></ellipse>
<text x="658.8" y="1542" style="">SelectFirstItem</text>
<ellipse cx="406.5" cy="1818.5" rx="139" ry="27.5" style="stroke:#33322E;fill:#fdf6e3;"></ellipse>
<text x="287.5" y="1825" style="">SearchQueriesAndUpdateStream</text>
<ellipse cx="406.5" cy="1691" rx="122" ry="27.5" style="stroke:#33322E;fill:#fdf6e3;"></ellipse>
<text x="304.5" y="1697" style="">SearchQueryAndOpenStream</text>
<ellipse cx="722" cy="1821" rx="84" ry="27.5" style="stroke:#33322E;fill:#fdf6e3;"></ellipse>
<text x="658.8" y="1827" style="">ShowErrorNotice</text>
<ellipse cx="406.5" cy="1973.5" rx="88" ry="27.5" style="stroke:#33322E;fill:#fdf6e3;"></ellipse>
<text x="338.5" y="1980" style="">ToggleQueryPanel</text>
<ellipse cx="406.5" cy="2078.5" rx="109.5" ry="27.5" style="stroke:#33322E;fill:#fdf6e3;"></ellipse>
<text x="317.8" y="2085" style="">ToggleSearchListPanel</text>
<rect x="88.5" y="2180.5" height="420" width="789" style="stroke:#33322E;fill:#eee8d5;"></rect>
<text x="406.5" y="2214" style="">GitHubSearchStream</text>
<path d="M88.5 2235.5 L877.5 2235.5" style="stroke:#33322E;fill:none;"></path>
<path d="M190.1 2338 L238.5 2288 L263.5 2288 L263.5 2288 " style="stroke:#33322E;fill:none;"></path>
<path d="M246.8 2294.7 L255.2 2288 L246.8 2281.3 L263.5 2288 Z" style="stroke:#33322E;fill:#33322E;"></path>
<path d="M213.5 2383.8 L238.5 2393 L297.5 2393 L297.5 2393 " style="stroke:#33322E;fill:none;"></path>
<path d="M280.8 2399.7 L289.2 2393 L280.8 2386.3 L297.5 2393 Z" style="stroke:#33322E;fill:#33322E;"></path>
<path d="M490.5 2375.9 L549.5 2365.5 L627.6 2390.5 L627.6 2390.5 " style="stroke:#33322E;fill:none;"></path>
<path d="M609.7 2391.8 L619.7 2388 L613.8 2379.1 L627.6 2390.5 Z" style="stroke:#33322E;fill:#33322E;"></path>
<path d="M434.7 2365.5 L549.5 2288 L629.5 2288 L629.5 2288 " style="stroke:#33322E;fill:none;"></path>
<path d="M612.8 2294.7 L621.2 2288 L612.8 2281.3 L629.5 2288 Z" style="stroke:#33322E;fill:#33322E;"></path>
<path d="M421.6 2420.5 L549.5 2548 L574.5 2548 L574.5 2548 " style="stroke:#33322E;fill:none;"></path>
<path d="M557.8 2554.7 L566.2 2548 L557.8 2541.3 L574.5 2548 Z" style="stroke:#33322E;fill:#33322E;"></path>
<path d="M176.6 2393 L238.5 2523 L310 2523 L310 2523 " style="stroke:#33322E;fill:none;"></path>
<path d="M293.3 2529.7 L301.7 2523 L293.3 2516.3 L310 2523 Z" style="stroke:#33322E;fill:#33322E;"></path>
<path d="M475.5 2495.5 L549.5 2470.5 L627.6 2445.5 L627.6 2445.5 " style="stroke:#33322E;fill:none;"></path>
<path d="M613.8 2456.9 L619.7 2448 L609.7 2444.2 L627.6 2445.5 Z" style="stroke:#33322E;fill:#33322E;"></path>
<circle r="10" cx="163.5" cy="2333.5" style="stroke:#33322E;fill:#fdf6e3;"></circle>
<path d="M163.5 2343.5 L163.5 2363.5" style="stroke:#33322E;fill:none;"></path>
<path d="M153.5 2353.5 L173.5 2353.5" style="stroke:#33322E;fill:none;"></path>
<path d="M153.5 2373.5 L163.5 2363.5 L173.5 2373.5" style="stroke:#33322E;fill:none;"></path>
<text x="133.8" y="2387" style="">AppUser</text>
<ellipse cx="394" cy="2288" rx="130.5" ry="27.5" style="stroke:#33322E;fill:#fdf6e3;"></ellipse>
<text x="283.5" y="2294" style="">ApplyFilterToCurrentStream</text>
<ellipse cx="394" cy="2393" rx="96.5" ry="27.5" style="stroke:#33322E;fill:#fdf6e3;"></ellipse>
<text x="317.5" y="2399" style="">ReloadActiveStream</text>
<ellipse cx="713.5" cy="2418" rx="126.5" ry="27.5" style="stroke:#33322E;fill:#fdf6e3;"></ellipse>
<text x="607.8" y="2424" style="">SearchQueryToUpdateStream</text>
<ellipse cx="713.5" cy="2288" rx="84" ry="27.5" style="stroke:#33322E;fill:#fdf6e3;"></ellipse>
<text x="649.8" y="2294" style="">ShowErrorNotice</text>
<ellipse cx="713.5" cy="2548" rx="139" ry="27.5" style="stroke:#33322E;fill:#fdf6e3;"></ellipse>
<text x="594.5" y="2554" style="">SearchQueriesAndUpdateStream</text>
<ellipse cx="394" cy="2523" rx="84" ry="27.5" style="stroke:#33322E;fill:#fdf6e3;"></ellipse>
<text x="330.8" y="2529" style="">ReloadAllStream</text>
<rect x="281.5" y="2650.5" height="475" width="402" style="stroke:#33322E;fill:#eee8d5;"></rect>
<text x="427.3" y="2684" style="">GitHubSetting</text>
<path d="M281.5 2705.5 L683.5 2705.5" style="stroke:#33322E;fill:none;"></path>
<path d="M369.6 2888 L431.5 2758 L456.5 2758 L456.5 2758 " style="stroke:#33322E;fill:none;"></path>
<path d="M439.8 2764.7 L448.2 2758 L439.8 2751.3 L456.5 2758 Z" style="stroke:#33322E;fill:#33322E;"></path>
<path d="M395.8 2888 L431.5 2863 L482 2863 L482 2863 " style="stroke:#33322E;fill:none;"></path>
<path d="M465.3 2869.7 L473.7 2863 L465.3 2856.3 L482 2863 Z" style="stroke:#33322E;fill:#33322E;"></path>
<path d="M395.8 2943 L431.5 2968 L465 2968 L465 2968 " style="stroke:#33322E;fill:none;"></path>
<path d="M448.3 2974.7 L456.7 2968 L448.3 2961.3 L465 2968 Z" style="stroke:#33322E;fill:#33322E;"></path>
<path d="M369.6 2943 L431.5 3073 L461 3073 L461 3073 " style="stroke:#33322E;fill:none;"></path>
<path d="M444.3 3079.7 L452.7 3073 L444.3 3066.3 L461 3073 Z" style="stroke:#33322E;fill:#33322E;"></path>
<circle r="10" cx="356.5" cy="2883.5" style="stroke:#33322E;fill:#fdf6e3;"></circle>
<path d="M356.5 2893.5 L356.5 2913.5" style="stroke:#33322E;fill:none;"></path>
<path d="M346.5 2903.5 L366.5 2903.5" style="stroke:#33322E;fill:none;"></path>
<path d="M346.5 2923.5 L356.5 2913.5 L366.5 2923.5" style="stroke:#33322E;fill:none;"></path>
<text x="326.8" y="2937" style="">AppUser</text>
<ellipse cx="557.5" cy="2758" rx="101" ry="27.5" style="stroke:#33322E;fill:#fdf6e3;"></ellipse>
<text x="476.8" y="2764" style="">CheckGrantGitHubAPI</text>
<ellipse cx="557.5" cy="2863" rx="75.5" ry="27.5" style="stroke:#33322E;fill:#fdf6e3;"></ellipse>
<text x="502.8" y="2869" style="">DeleteSetting</text>
<ellipse cx="557.5" cy="2968" rx="92.5" ry="27.5" style="stroke:#33322E;fill:#fdf6e3;"></ellipse>
<text x="485.8" y="2974" style="">SaveGitHubSetting</text>
<ellipse cx="557.5" cy="3073" rx="96.5" ry="27.5" style="stroke:#33322E;fill:#fdf6e3;"></ellipse>
<text x="481.5" y="3079" style="">ToggleSettingPanel</text>
<rect x="83.5" y="3175.5" height="315" width="798" style="stroke:#33322E;fill:#eee8d5;"></rect>
<text x="440" y="3209" style="">GitHubUser</text>
<path d="M83.5 3230.5 L881.5 3230.5" style="stroke:#33322E;fill:none;"></path>
<path d="M185.1 3333 L233.5 3283 L258.5 3283 L258.5 3283 " style="stroke:#33322E;fill:none;"></path>
<path d="M241.8 3289.7 L250.2 3283 L241.8 3276.3 L258.5 3283 Z" style="stroke:#33322E;fill:#33322E;"></path>
<path d="M208.5 3360.5 L233.5 3360.5 L595.5 3360.5 L595.5 3360.5 L637 3371.8 L637 3371.8 " style="stroke:#33322E;fill:none;"></path>
<path d="M619.2 3373.8 L629 3369.6 L622.7 3361 L637 3371.8 Z" style="stroke:#33322E;fill:#33322E;"></path>
<path d="M185.1 3388 L233.5 3438 L288 3438 L288 3438 " style="stroke:#33322E;fill:none;"></path>
<path d="M271.3 3444.7 L279.7 3438 L271.3 3431.3 L288 3438 Z" style="stroke:#33322E;fill:#33322E;"></path>
<path d="M541 3438 L595.5 3438 L637 3426.8 L637 3426.8 " style="stroke:#33322E;fill:none;"></path>
<path d="M622.7 3437.5 L629 3428.9 L619.2 3424.7 L637 3426.8 Z" style="stroke:#33322E;fill:#33322E;"></path>
<circle r="10" cx="158.5" cy="3328.5" style="stroke:#33322E;fill:#fdf6e3;"></circle>
<path d="M158.5 3338.5 L158.5 3358.5" style="stroke:#33322E;fill:none;"></path>
<path d="M148.5 3348.5 L168.5 3348.5" style="stroke:#33322E;fill:none;"></path>
<path d="M148.5 3368.5 L158.5 3358.5 L168.5 3368.5" style="stroke:#33322E;fill:none;"></path>
<text x="128.8" y="3382" style="">AppUser</text>
<ellipse cx="414.5" cy="3283" rx="156" ry="27.5" style="stroke:#33322E;fill:#fdf6e3;"></ellipse>
<text x="278.5" y="3289" style="">ApplyFilterToCurrentUserActivity</text>
<ellipse cx="738.5" cy="3399.3" rx="118" ry="27.5" style="stroke:#33322E;fill:#fdf6e3;"></ellipse>
<text x="640.8" y="3405" style="">FetchGitHubUserActivity</text>
<ellipse cx="414.5" cy="3438" rx="126.5" ry="27.5" style="stroke:#33322E;fill:#fdf6e3;"></ellipse>
<text x="308.8" y="3444" style="">ReloadCurrentUserActivity</text>
<rect x="294.5" y="3540.5" height="160" width="376" style="stroke:#33322E;fill:#eee8d5;"></rect>
<text x="457" y="3574" style="">Mobile</text>
<path d="M294.5 3595.5 L670.5 3595.5" style="stroke:#33322E;fill:none;"></path>
<path d="M419.5 3648 L444.5 3648 L469.5 3648 L469.5 3648 " style="stroke:#33322E;fill:none;"></path>
<path d="M452.8 3654.7 L461.2 3648 L452.8 3641.3 L469.5 3648 Z" style="stroke:#33322E;fill:#33322E;"></path>
<circle r="10" cx="369.5" cy="3615.5" style="stroke:#33322E;fill:#fdf6e3;"></circle>
<path d="M369.5 3625.5 L369.5 3645.5" style="stroke:#33322E;fill:none;"></path>
<path d="M359.5 3635.5 L379.5 3635.5" style="stroke:#33322E;fill:none;"></path>
<path d="M359.5 3655.5 L369.5 3645.5 L379.5 3655.5" style="stroke:#33322E;fill:none;"></path>
<text x="339.8" y="3669" style="">AppUser</text>
<ellipse cx="557.5" cy="3648" rx="88" ry="27.5" style="stroke:#33322E;fill:#fdf6e3;"></ellipse>
<text x="489.5" y="3654" style="">ToggleMobileMenu</text>
<rect x="286.5" y="3750.5" height="370" width="393" style="stroke:#33322E;fill:#eee8d5;"></rect>
<text x="457.5" y="3784" style="">Notice</text>
<path d="M286.5 3805.5 L679.5 3805.5" style="stroke:#33322E;fill:none;"></path>
<path d="M381.1 3935.5 L436.5 3858 L461.5 3858 L461.5 3858 " style="stroke:#33322E;fill:none;"></path>
<path d="M444.8 3864.7 L453.2 3858 L444.8 3851.3 L461.5 3858 Z" style="stroke:#33322E;fill:#33322E;"></path>
<path d="M411.5 3963 L436.5 3963 L474 3963 L474 3963 " style="stroke:#33322E;fill:none;"></path>
<path d="M457.3 3969.7 L465.7 3963 L457.3 3956.3 L474 3963 Z" style="stroke:#33322E;fill:#33322E;"></path>
<path d="M381.1 3990.5 L436.5 4068 L470 4068 L470 4068 " style="stroke:#33322E;fill:none;"></path>
<path d="M453.3 4074.7 L461.7 4068 L453.3 4061.3 L470 4068 Z" style="stroke:#33322E;fill:#33322E;"></path>
<circle r="10" cx="361.5" cy="3930.5" style="stroke:#33322E;fill:#fdf6e3;"></circle>
<path d="M361.5 3940.5 L361.5 3960.5" style="stroke:#33322E;fill:none;"></path>
<path d="M351.5 3950.5 L371.5 3950.5" style="stroke:#33322E;fill:none;"></path>
<path d="M351.5 3970.5 L361.5 3960.5 L371.5 3970.5" style="stroke:#33322E;fill:none;"></path>
<text x="331.8" y="3984" style="">AppUser</text>
<ellipse cx="558" cy="3858" rx="96.5" ry="27.5" style="stroke:#33322E;fill:#fdf6e3;"></ellipse>
<text x="481.5" y="3864" style="">DismissErrorNotice</text>
<ellipse cx="558" cy="3963" rx="84" ry="27.5" style="stroke:#33322E;fill:#fdf6e3;"></ellipse>
<text x="494.8" y="3969" style="">ShowErrorNotice</text>
<ellipse cx="558" cy="4068" rx="88" ry="27.5" style="stroke:#33322E;fill:#fdf6e3;"></ellipse>
<text x="490.5" y="4074" style="">ShowGenericError</text>
<rect x="281.5" y="4170.5" height="370" width="402" style="stroke:#33322E;fill:#eee8d5;"></rect>
<text x="452.8" y="4204" style="">Profile</text>
<path d="M281.5 4225.5 L683.5 4225.5" style="stroke:#33322E;fill:none;"></path>
<path d="M376.1 4355.5 L431.5 4278 L482 4278 L482 4278 " style="stroke:#33322E;fill:none;"></path>
<path d="M465.3 4284.7 L473.7 4278 L465.3 4271.3 L482 4278 Z" style="stroke:#33322E;fill:#33322E;"></path>
<path d="M406.5 4383 L431.5 4383 L465 4383 L465 4383 " style="stroke:#33322E;fill:none;"></path>
<path d="M448.3 4389.7 L456.7 4383 L448.3 4376.3 L465 4383 Z" style="stroke:#33322E;fill:#33322E;"></path>
<path d="M376.1 4410.5 L431.5 4488 L456.5 4488 L456.5 4488 " style="stroke:#33322E;fill:none;"></path>
<path d="M439.8 4494.7 L448.2 4488 L439.8 4481.3 L456.5 4488 Z" style="stroke:#33322E;fill:#33322E;"></path>
<circle r="10" cx="356.5" cy="4350.5" style="stroke:#33322E;fill:#fdf6e3;"></circle>
<path d="M356.5 4360.5 L356.5 4380.5" style="stroke:#33322E;fill:none;"></path>
<path d="M346.5 4370.5 L366.5 4370.5" style="stroke:#33322E;fill:none;"></path>
<path d="M346.5 4390.5 L356.5 4380.5 L366.5 4390.5" style="stroke:#33322E;fill:none;"></path>
<text x="326.8" y="4404" style="">AppUser</text>
<ellipse cx="557.5" cy="4278" rx="75.5" ry="27.5" style="stroke:#33322E;fill:#fdf6e3;"></ellipse>
<text x="502.8" y="4284" style="">ExportProfile</text>
<ellipse cx="557.5" cy="4383" rx="92.5" ry="27.5" style="stroke:#33322E;fill:#fdf6e3;"></ellipse>
<text x="485.8" y="4389" style="">ImportProfileJSON</text>
<ellipse cx="557.5" cy="4488" rx="101" ry="27.5" style="stroke:#33322E;fill:#fdf6e3;"></ellipse>
<text x="476.8" y="4494" style="">ToggleProfileWindow</text>
<rect x="185.5" y="4590.5" height="370" width="594" style="stroke:#33322E;fill:#eee8d5;"></rect>
<text x="440" y="4624" style="">QuickIssue</text>
<path d="M185.5 4645.5 L779.5 4645.5" style="stroke:#33322E;fill:none;"></path>
<path d="M280.1 4775.5 L335.5 4698 L360.5 4698 L360.5 4698 " style="stroke:#33322E;fill:none;"></path>
<path d="M343.8 4704.7 L352.2 4698 L343.8 4691.3 L360.5 4698 Z" style="stroke:#33322E;fill:#33322E;"></path>
<path d="M310.5 4803 L335.5 4803 L360.5 4803 L360.5 4803 " style="stroke:#33322E;fill:none;"></path>
<path d="M343.8 4809.7 L352.2 4803 L343.8 4796.3 L360.5 4803 Z" style="stroke:#33322E;fill:#33322E;"></path>
<path d="M528.5 4803 L553.5 4803 L578.5 4803 L578.5 4803 " style="stroke:#33322E;fill:none;"></path>
<path d="M561.8 4809.7 L570.2 4803 L561.8 4796.3 L578.5 4803 Z" style="stroke:#33322E;fill:#33322E;"></path>
<path d="M280.1 4830.5 L335.5 4908 L365 4908 L365 4908 " style="stroke:#33322E;fill:none;"></path>
<path d="M348.3 4914.7 L356.7 4908 L348.3 4901.3 L365 4908 Z" style="stroke:#33322E;fill:#33322E;"></path>
<circle r="10" cx="260.5" cy="4770.5" style="stroke:#33322E;fill:#fdf6e3;"></circle>
<path d="M260.5 4780.5 L260.5 4800.5" style="stroke:#33322E;fill:none;"></path>
<path d="M250.5 4790.5 L270.5 4790.5" style="stroke:#33322E;fill:none;"></path>
<path d="M250.5 4810.5 L260.5 4800.5 L270.5 4810.5" style="stroke:#33322E;fill:none;"></path>
<text x="230.8" y="4824" style="">AppUser</text>
<ellipse cx="444.5" cy="4698" rx="84" ry="27.5" style="stroke:#33322E;fill:#fdf6e3;"></ellipse>
<text x="380.8" y="4704" style="">CloseQuickIssue</text>
<ellipse cx="444.5" cy="4803" rx="84" ry="27.5" style="stroke:#33322E;fill:#fdf6e3;"></ellipse>
<text x="380.8" y="4809" style="">OpenGitHubIssue</text>
<ellipse cx="666.5" cy="4803" rx="88" ry="27.5" style="stroke:#33322E;fill:#fdf6e3;"></ellipse>
<text x="598.5" y="4809" style="">OpenItemInNewTab</text>
<ellipse cx="444.5" cy="4908" rx="79.5" ry="27.5" style="stroke:#33322E;fill:#fdf6e3;"></ellipse>
<text x="385.5" y="4914" style="">OpenQuickIssue</text>
<rect x="156.5" y="5010.5" height="370" width="653" style="stroke:#33322E;fill:#eee8d5;"></rect>
<text x="457.5" y="5044" style="">System</text>
<path d="M156.5 5065.5 L809.5 5065.5" style="stroke:#33322E;fill:none;"></path>
<path d="M251.1 5195.5 L306.5 5118 L335.5 5118 L335.5 5118 " style="stroke:#33322E;fill:none;"></path>
<path d="M318.8 5124.7 L327.2 5118 L318.8 5111.3 L335.5 5118 Z" style="stroke:#33322E;fill:#33322E;"></path>
<path d="M281.5 5223 L306.5 5223 L340 5223 L340 5223 " style="stroke:#33322E;fill:none;"></path>
<path d="M323.3 5229.7 L331.7 5223 L323.3 5216.3 L340 5223 Z" style="stroke:#33322E;fill:#33322E;"></path>
<path d="M251.1 5250.5 L306.5 5328 L331.5 5328 L331.5 5328 " style="stroke:#33322E;fill:none;"></path>
<path d="M314.8 5334.7 L323.2 5328 L314.8 5321.3 L331.5 5328 Z" style="stroke:#33322E;fill:#33322E;"></path>
<path d="M507.5 5328 L532.5 5328 L557.5 5328 L557.5 5328 " style="stroke:#33322E;fill:none;"></path>
<path d="M540.8 5334.7 L549.2 5328 L540.8 5321.3 L557.5 5328 Z" style="stroke:#33322E;fill:#33322E;"></path>
<circle r="10" cx="231.5" cy="5190.5" style="stroke:#33322E;fill:#fdf6e3;"></circle>
<path d="M231.5 5200.5 L231.5 5220.5" style="stroke:#33322E;fill:none;"></path>
<path d="M221.5 5210.5 L241.5 5210.5" style="stroke:#33322E;fill:none;"></path>
<path d="M221.5 5230.5 L231.5 5220.5 L241.5 5230.5" style="stroke:#33322E;fill:none;"></path>
<text x="201.8" y="5244" style="">AppUser</text>
<ellipse cx="419.5" cy="5118" rx="84" ry="27.5" style="stroke:#33322E;fill:#fdf6e3;"></ellipse>
<text x="355.8" y="5124" style="">ClearAllStorage</text>
<ellipse cx="419.5" cy="5223" rx="79.5" ry="27.5" style="stroke:#33322E;fill:#fdf6e3;"></ellipse>
<text x="360.5" y="5229" style="">ClearCacheData</text>
<ellipse cx="419.5" cy="5328" rx="88" ry="27.5" style="stroke:#33322E;fill:#fdf6e3;"></ellipse>
<text x="351.5" y="5334" style="">ReadyToLaunchApp</text>
<ellipse cx="671" cy="5328" rx="113.5" ry="27.5" style="stroke:#33322E;fill:#fdf6e3;"></ellipse>
<text x="577.5" y="5334" style="">UpdateAppNetworkStatus</text></svg>